<svg id="Layer_1" data-name="Layer 1" xmlns="http://www.w3.org/2000/svg" viewBox="0 0 1000 1000">
    <defs>
        <style>.cls-1{fill:#660066;}.cls-2{fill:#660066;}</style>
    </defs>
    <title>color_logo_transparent-image-only</title>
    <g id="SvgjsG1383">
        <path class="cls-1" d="M96.3,787.54q-5.35-7.26-10.45-14.67C89.21,777.8,92.72,782.68,96.3,787.54Z"
              transform="translate(0)"/>
        <path class="cls-1"
              d="M121.8,819.45c9.91,11.38,20.36,22.47,31.5,33.06,37.17,36,81.49,66.24,129,89.12C299.85,949.7,316,958.06,335,965.26c4.73,1.79,9.56,3.7,14.64,5.42s10.43,3.2,16,4.78,11.4,2.9,17.56,4.16,12.55,2.6,19.42,3.3a496.87,496.87,0,0,1-99.09-31.68,506.5,506.5,0,0,1-90.7-52c-56.7-40.87-105.2-93.34-140.62-153.32a99.92,99.92,0,0,1-6.35-9.56l-4.28-7.13c-1.37-2.63-2.83-5.39-4.31-8.21-2.87-5.69-6.18-11.46-8.71-17.06s-5.07-10.63-7.13-14.53a456.64,456.64,0,0,0,37.95,73c6.53,10.23,13.41,20.24,20.8,30.13-1-1.37-2.11-2.71-3.14-4.08,7.77,10.5,16,20.84,24.73,30.89Z"
              transform="translate(0)"/>
        <path class="cls-1" d="M97,788.44l-.67-.9Z" transform="translate(0)"/>
        <path class="cls-1"
              d="M7.18,560.83q-1.29-10.12-2.6-20.49c1.38,12.51,3,26.49,5.89,40.48-.58-3.3-1.16-6.62-1.75-9.94S7.54,564.22,7.18,560.83Z"
              transform="translate(0)"/>
        <path class="cls-1"
              d="M461.29,981.47a438.64,438.64,0,0,0,110-3.22,509.2,509.2,0,0,0,106.11-28.82,492.33,492.33,0,0,1-190.77,32.64C478.06,981.93,469.63,982.07,461.29,981.47Z"
              transform="translate(0)"/>
        <path class="cls-1" d="M249.57,909.5l-1.4-.87Z" transform="translate(0)"/>
        <path class="cls-1" d="M248.17,908.63c-4.58-2.87-9.07-5.82-13.51-8.82C239.08,902.82,243.6,905.74,248.17,908.63Z"
              transform="translate(0)"/>
        <path class="cls-1" d="M234.66,899.81c-4.83-3.3-9.66-6.6-14.3-10C225,893.2,229.82,896.54,234.66,899.81Z"
              transform="translate(0)"/>
        <path class="cls-1"
              d="M301.45,937.62a455.4,455.4,0,0,0,92,30.76A469.73,469.73,0,0,1,249.57,909.5,451.69,451.69,0,0,0,301.45,937.62Z"
              transform="translate(0)"/>
        <path class="cls-1"
              d="M951.48,566.4c.53-8.36,1.59-17.13,1.86-21.3a569,569,0,0,0,4-72.69c-.6-4.14-2.29-11.9-3-20.73s-2-17.5-3-26c-1.56-8.46-2.9-16.85-4.6-25.07a471.29,471.29,0,0,1,.78,181.31C948.84,576.4,950.16,571.21,951.48,566.4Z"
              transform="translate(0)"/>
        <path class="cls-1"
              d="M4.77,441.52C9.33,405,19,369.45,28.26,345.76L24.53,363.1c2.3-5.08,6-16.89,11.11-29.39,1.21-3.14,2.44-6.34,3.66-9.53l4.05-9.24c2.69-6,4.95-11.65,7.33-16-1.63,4.08-3.2,8.48-5.09,12.89s-3.94,8.92-5.92,13.44l8.14-18a584.12,584.12,0,0,0-21.18,61.92,518.5,518.5,0,0,0-13.5,68.92c-.75,5.42-1,10.71-1.5,15.75s-1,9.86-1,14.41c-.23,9.09-.54,17.05-.38,23.42.56,12.74,1.34,19.09,2.46,15.54,2.21-7.05,2.17-43.3,9.88-88.68A540,540,0,0,1,40.63,346.8a465.58,465.58,0,0,1,29.24-68.71l-3.18,6.83-2.93,7q-3,7.07-6,14.24l-5.5,14.7c-.93,2.46-1.87,4.93-2.8,7.41S47.8,333.36,47,335.9c-7.1,20.13-12.4,41.33-17,62.71l-3,16.14c-1.1,5.36-1.57,10.82-2.39,16.22-1.71,10.79-2.33,21.67-3.28,32.41-1.07,21.55-1.29,42.83.7,63.18-.08-4.83-.16-9.13-.09-13.28s.4-8.17.61-12.46.21-8.81.62-14,.72-11.06,1-18a463.87,463.87,0,0,1,18.32-103c9.41-33.62,20.51-63.23,37-90.06,1.44-2.72,2.88-5.4,4.3-8.07,2.91-5.42,5.34-10.76,8.42-16.21,3.51-6,6.87-10.45,9.59-14.55s5.18-7.62,7.9-11.08l19.79-26.88c.4,0-.12,1-1.08,2.5A154.56,154.56,0,0,1,139,188.27c4.06-4.63,8-9.54,11.34-13.59a5.32,5.32,0,0,0,3.35-1.33c46.5-48.64,103.72-88.28,168.21-113.27l14.33-5.49,14.52-4.76,7.22-2.37,7.31-2,14.56-4c8.34-2,16.78-4,25.38-5.77l13.1-2.25c4.4-.75,8.83-1.59,13.35-2,9-1.07,16.85-3.31,21.08-3.86a537.29,537.29,0,0,1,74.45,1.14c2.13,0,5.45.23,9.31.44s8.26.32,12.53.71c5,1.11,10.36,2.21,16,3.28a458.38,458.38,0,0,1,98.84,27l0-.15,12.06,4.73,12.31,5.6c8.45,3.61,16.72,8.24,25.27,12.6,4.29,2.15,8.35,4.78,12.57,7.16s8.47,4.73,12.47,7.47c8.1,5.3,16.32,10.37,23.9,16,12.91,9.12,24.83,18.55,35.48,27.49.24.23.5.43.75.65a2.3,2.3,0,0,1,.22.2l7.84,7,7.49,7.36,7.5,7.36c2.48,2.47,4.78,5.12,7.19,7.66-1.17-1.85-1.12-2.59-1.08-3.33l-12.41-11.69c7.22,6.47,13.52,12.31,18.69,17.08,2,2.51,4.17,5,6.24,7.67l6.37,8.28,6.78,8.61,6.75,9.27c12,15,22.52,31.07,32.55,47.44,4.65,8.4,9.77,16.56,13.91,25.25l6.52,12.88L919,306c1.68,2.82,1,.11,1.24-.36A450.12,450.12,0,0,1,936.91,354a459.56,459.56,0,0,1,18.32,91c1.21,7.29,1.73,14.67,2.8,22-.18,4.16-.4,9.38-.66,15.46,0,5.84.3,11.67,0,17.51s-.46,11.7-.69,17.6c-.08,4-.66,8.29-1,13s-.69,9.76-1.38,15.11-1.44,11-2.21,16.88-2.08,12-3.14,18.35a472.06,472.06,0,0,1-23.18,81.89,98.23,98.23,0,0,1-3.18,9.81c-3.37,7.93-7,15.62-10.44,23.19-3.88,7.37-7.45,14.74-11.43,21.72A453.54,453.54,0,0,1,858,783c-1.81,2.33-3.49,4.68-5.31,6.86l-5.36,6.38c-3.55,4.12-6.72,8.24-10.09,11.82-6.72,7.15-12.37,13.78-17.66,18.77-6.06,6.23-5.52,6.52-1.32,3.51,2.08-1.51,5.14-3.8,8.64-6.67l11.41-10.12c4.17-3.58,8.16-7.62,12-11.43s7.61-7.33,10.55-10.5c5.92-6.29,9.8-10.18,9-8.45-9.56,17.69-26.95,39.51-52.38,63.65-13,11.78-27.56,24.58-44.82,36.91-8.42,6.46-17.78,12.37-27.32,18.82-9.86,5.94-19.94,12.45-31,18.22-24.1,12.92,18.09-7.8,19.23-8a122.64,122.64,0,0,1-12.78,8.68c-7.94,4.16-15.82,8.44-24,12-4.81,2.17-9.54,4.52-14.4,6.55l-14.67,5.94,7.76-3a398.2,398.2,0,0,0,44.09-20.74c-5,3-10.53,6.46-16.57,9.58-6.46,3.29-13.15,6.89-19.87,10.1s-13.41,6.13-19.48,8.92c69.71-24.92,133.77-66.15,184.48-119.9,25.39-26.79,48-56.23,66.49-88.06A492.47,492.47,0,0,0,959.2,642.32,464,464,0,0,1,884,783.88a485.44,485.44,0,0,0,96.76-267.8c0,5.34-.54,10.67-.9,16s-.67,10.68-1.3,16c-1.38,10.6-2.37,21.26-4.45,31.78-3.35,21.15-8.79,41.94-14.95,62.48,12.16-37.13,19.42-76.28,22.28-115.66s.5-79-5.68-117.47c10.61,50.89,12.37,108.55,3.33,165.53a478.53,478.53,0,0,0,5.52-112.19c-.54-14.35-2.27-28.6-3.68-41.79-2-13.09-3.56-25.19-5.52-35a585.17,585.17,0,0,1,12.33,95.91,500.82,500.82,0,0,0-41-187.81c14.29,32.75,26,68,33.19,104.18a450.73,450.73,0,0,1,8.49,108.79c-.08-4.17.1-8.33-.15-12.51s-.38-8.39-.57-12.65a495.93,495.93,0,0,1-58.58,245.2,503.79,503.79,0,0,1-46,70.42c19.74-22.69,40.59-54.76,57.23-90s28.85-73.48,37.31-106.82a482.07,482.07,0,0,1-73,171.73A494,494,0,0,1,589.72,979.81a508.68,508.68,0,0,1-188.24,1.56l16.15,3c5.39,1,10.85,1.56,16.27,2.35,10.84,1.71,21.8,2.36,32.72,3.35,21.89,1.21,43.91,1.62,65.85,0,22-1.15,43.82-4.37,65.56-8.31,10.78-2.41,21.7-4.39,32.34-7.48,5.35-1.47,10.76-2.76,16.06-4.39l15.89-5.07c-8,2.45-16.46,5.68-25.48,8.06l-11.29,3.27a498.64,498.64,0,0,0,69.39-23.78q15.34-6.6,30.38-14.31a523.22,523.22,0,0,1-57.59,25.77,535.61,535.61,0,0,1-116.44,28.46c-6,.93-11.4,1.23-16.28,1.73l-13,1.27c-7.68.59-13.35.86-17.32,1.29-7.94.78-9.07,1.5-5.91,2.1s10.6,1.08,19.75,1.33c9.12,0,19.94-.53,29.78-1.42A508,508,0,0,0,810.72,893.25c72.81-57.18,128.57-133.13,159.66-219.31,2-5,3.45-10.16,5.07-15.28s3.32-10.22,4.74-15.4c2.64-10.42,5.76-20.72,7.79-31.3l3.32-15.79,2.62-15.93,1.3-8,.92-8,1.84-16a535,535,0,0,0-4.37-128.86,525.64,525.64,0,0,0-17.82-78.15c-2.12-6.33-4.19-12.51-6.18-18.42-2.15-5.86-4.43-11.38-6.46-16.57l-3-7.49q-1.6-3.53-3.07-6.72l-5.27-11.23A514.52,514.52,0,0,0,803.75,103.68l-12.06-9-12.51-8.51-6.27-4.26-6.47-4-13-8c-17.71-10.07-35.85-19.77-55-27.82-18.93-8.45-38.73-15.31-58.9-21.45-10.19-2.75-20.32-5.81-30.77-7.92-5.2-1.11-10.36-2.45-15.62-3.38L577.35,6.61A477.9,477.9,0,0,0,460.81,1.4c-39.3,3-78.77,10.33-116.62,23L330,29.23c-4.73,1.57-9.3,3.61-14,5.39s-9.33,3.56-13.85,5.66l-13.61,6.2c-4.58,2-9,4.27-13.42,6.58l-13.27,6.86L249,67.39c-4.3,2.5-8.64,4.94-12.75,7.71l-12.5,8.08c-4.2,2.63-8.09,5.7-12.15,8.53s-8.12,5.66-12,8.75L188,109.64c-3.92,3-7.62,6.23-11.31,9.48l-11.09,9.68L155.05,139c-3.53,3.38-7.09,6.72-10.38,10.32A509.49,509.49,0,0,0,74.44,240.2,521.8,521.8,0,0,0,27.85,340.49C4.33,408.82-2.42,478.12.72,540.71,0,514.94-.07,478,4.77,441.52ZM763.43,919.87a521.77,521.77,0,0,0,47.12-33.79A458.85,458.85,0,0,1,763.43,919.87ZM979.62,632.78c-1.61,4.77-3,9.48-4.74,14l-5.15,13.34-2.5,6.61-2.76,6.51c-1.82,4.35-3.61,8.74-5.36,13.22A512.4,512.4,0,0,1,923.7,757a489.55,489.55,0,0,1-46,63.68c-8.29,10-17.32,19.35-26.2,28.67l-13.88,13.34c-4.55,4.48-9.53,8.48-14.25,12.71q-5.94,5.09-12,10a486,486,0,0,0,42.44-38.67A481.77,481.77,0,0,1,791,900.61c-5.57,3.82-11,7.91-16.74,11.51l-17.45,10.94-18.44,10.31c-6.27,3.42-12.89,6.47-19.53,9.81,3.86-2.28,8.91-5,14.43-8s11.25-6.54,16.87-9.78,10.81-6.67,15.09-9.59a104.29,104.29,0,0,0,9.38-6.91c-2.49,1.67-5,3.26-7.55,4.89,2.7-1.76,5.4-3.54,8.1-5.37-.12.12-.35.31-.55.48A512.7,512.7,0,0,0,920.93,758.39a499.25,499.25,0,0,0,72.36-193.57A279.79,279.79,0,0,1,979.62,632.78ZM943.85,287.15c-1.58-3.64-3.17-7.27-5-10.76C940.7,279.93,942.28,283.54,943.85,287.15ZM898.44,220a486.51,486.51,0,0,1,41.78,75.91c1.34,2.9,2.61,5.85,3.86,8.8a492.11,492.11,0,0,1,37,201.16,506.43,506.43,0,0,0-3.59-67.22,470.24,470.24,0,0,0-15.19-75.84C948.57,313,926.2,265.89,897.81,222.9c2.61,3.55,5.36,7.39,8.2,11.46s5.82,8.36,8.55,13l-3.43-5.86-3.71-5.71-7.4-11.4c-5-7.53-10.51-14.79-15.78-22.17-5.71-7.06-11.12-14.34-17.06-21.21-4.49-5-8.8-10.25-13.36-15.23A421.53,421.53,0,0,1,898.44,220ZM520.82,6.09c7.88.42,15.78,1.17,23.69,1.75,6.47.54,12.91,1.48,19.28,2.19,1.92.08,3.94.2,6.47.49s5.56,1,9.51,1.87C609.17,17.21,636,24.46,655,32A544.27,544.27,0,0,1,756.42,82c30.85,19.52,58.53,41.71,82,66,10.8,11.52,7.65,9,1.7,3.41l8.93,9.33c-4-3.88-7.84-7.81-11.86-11.61l-12.37-11c3,2.59,10.31,8.79,15.3,13.33A502.58,502.58,0,0,0,703.66,54.08,488.49,488.49,0,0,0,545.07,8.7c8.7,1,13,1.16,17,1.26-5.83-.67-11.68-1.59-17.59-2.12-8-.51-15.89-1.21-23.78-1.59l-23.44-.54C505.05,5.7,512.92,5.91,520.82,6.09Z"
              transform="translate(0)"/>
        <path class="cls-1"
              d="M623.25,976.79l2.29-.66c-2.4.63-4.76,1.33-7.17,1.93C620,977.66,621.64,977.27,623.25,976.79Z"
              transform="translate(0)"/>
        <path class="cls-1"
              d="M862.37,773a452.35,452.35,0,0,0,55.72-95.27l-.16,0a459,459,0,0,1-151.37,189c12.78-8.72,24.35-17.17,34.5-24.87C815.56,827,839.83,802.72,862.37,773Z"
              transform="translate(0)"/>
        <path class="cls-1"
              d="M190,861.26c38.55,33.91,85,63.42,136.79,83.3a465.27,465.27,0,0,0,61.84,18.64c10.45,2.65,21.12,4.29,31.71,6.24,5.3.93,10.68,1.44,16,2.18s10.68,1.45,16.06,1.76c-24.29-2.65-48.41-6.61-71.88-12.9A505,505,0,0,1,311.92,937,526.43,526.43,0,0,1,248,903.55,517.86,517.86,0,0,1,190,861.26Z"
              transform="translate(0)"/>
        <path class="cls-1"
              d="M665.91,921.72,654,926.32l-12.18,4c-8.07,2.86-16.38,5-24.68,7.26,8.34-2.06,16.73-4,24.86-6.63l12.27-3.69,12-4.31C665.78,922.71,663.05,923.24,665.91,921.72Z"
              transform="translate(0)"/>
        <path class="cls-1"
              d="M525.1,951.8c-6.24.52-12.5.47-18.78.54s-12.57.2-18.87-.2l8.48.78c2.59.16,4.92.36,7,.6C510.31,952.89,517.68,952.72,525.1,951.8Z"
              transform="translate(0)"/>
        <path class="cls-1"
              d="M276.52,894.91c7.21,4.16,14.87,7.83,22.46,11.87a92.55,92.55,0,0,0,9.68,3.75c-9.25-3.91-18.11-8.75-27.12-13.25-4.46-2.33-8.76-4.94-13.13-7.38s-8.72-4.9-12.84-7.64c1.66,1.1,3.34,2.21,5,3.31l5.25,3.09Z"
              transform="translate(0)"/>
    </g>
    <g id="SvgjsG1384">
        <polygon class="cls-2" points="485.47 294.88 492.01 314.71 486.69 316.41 480.14 296.59 485.47 294.88"/>
        <polygon class="cls-2" points="514.46 294.87 519.78 296.57 513.24 316.39 507.92 314.69 514.46 294.87"/>
        <path class="cls-2"
              d="M480.18,296.57a56.22,56.22,0,0,1,15.69-59.11,45.39,45.39,0,0,0,9.06-56.4l-5.06-8.88,8.93,5.16c.73.43,1.46.88,2.17,1.37a37.44,37.44,0,0,1,16.09,24.22,37.06,37.06,0,0,1-6,28.32,30.89,30.89,0,0,0-2.94,30.21,48.92,48.92,0,0,1,1.66,35.11l-5.32-1.69A43.64,43.64,0,0,0,513,263.64a36.24,36.24,0,0,1,3.46-35.49,31.94,31.94,0,0,0-2-39,50.83,50.83,0,0,1-14.76,52.39,50.73,50.73,0,0,0-14.16,53.38Z"
              transform="translate(0)"/>
        <path class="cls-2"
              d="M474.62,342.66l-.87-5.44a16.11,16.11,0,0,0,13.57-18.37,15,15,0,0,0-.6-2.46L492,314.7a20.15,20.15,0,0,1,.81,3.28,21.15,21.15,0,0,1-3.92,16A21.74,21.74,0,0,1,474.62,342.66Z"
              transform="translate(0)"/>
        <path class="cls-2"
              d="M525.33,342.66a22.82,22.82,0,0,1-3.34-.79,21.52,21.52,0,0,1-14.08-27.17l5.33,1.69a16,16,0,0,0,10.48,20.24,17.48,17.48,0,0,0,2.5.59Z"
              transform="translate(0)"/>
        <polygon class="cls-2" points="421.78 309.31 434.23 326.17 429.7 329.41 417.25 312.55 421.78 309.31"/>
        <rect class="cls-2" x="449.27" y="300.52" width="5.6" height="20.84"/>
        <path class="cls-2"
              d="M417.22,312.55a56.05,56.05,0,0,1-3.65-61,45.42,45.42,0,0,0-9.1-56.41l-7.62-6.91L407,190.45c.84.19,1.66.4,2.49.63a38.07,38.07,0,0,1,22.93,18.13A37,37,0,0,1,435.58,238a31,31,0,0,0,6.69,29.63,49.24,49.24,0,0,1,12.61,32.88h-5.59a43.88,43.88,0,0,0-11.22-29.25,36.34,36.34,0,0,1-7.86-34.81,32.12,32.12,0,0,0-14.16-36.5,50.67,50.67,0,0,1,2.41,54.3,50.59,50.59,0,0,0,3.29,55.06Z"
              transform="translate(0)"/>
        <path class="cls-2"
              d="M426.41,358.07l-2.54-4.9a16,16,0,0,0,8.12-9.34,15.76,15.76,0,0,0-1-12.26,16.32,16.32,0,0,0-1.34-2.14l4.52-3.24a21.27,21.27,0,0,1,3.12,19.34A21.51,21.51,0,0,1,426.41,358.07Z"
              transform="translate(0)"/>
        <path class="cls-2"
              d="M471.2,342.92a21.77,21.77,0,0,1-21.93-21.56h5.6a16.21,16.21,0,0,0,16.33,16.06,17,17,0,0,0,2.56-.2l.87,5.44A22,22,0,0,1,471.2,342.92Z"
              transform="translate(0)"/>
        <polygon class="cls-2" points="365.66 342.46 382.8 354.7 379.51 359.16 362.37 346.91 365.66 342.46"/>
        <polygon class="cls-2" points="394.36 323.99 400.91 343.81 395.59 345.51 389.04 325.69 394.36 323.99"/>
        <path class="cls-2"
              d="M362.35,346.9A56.38,56.38,0,0,1,339.73,290a45.72,45.72,0,0,0-26.36-50.86L304,234.88l10.32-1c.86-.08,1.71-.14,2.56-.16,21.21-.56,38.93,15.83,39.56,36.69a31.21,31.21,0,0,0,15.66,26.14A50,50,0,0,1,394.39,324l-5.33,1.7a44.37,44.37,0,0,0-19.86-24.41,36.69,36.69,0,0,1-18.41-30.72,32.5,32.5,0,0,0-24.93-30.41,51,51,0,0,1,19.35,50.91,50.89,50.89,0,0,0,20.42,51.37Z"
              transform="translate(0)"/>
        <path class="cls-2"
              d="M385.39,387.39l-4-3.89a15.89,15.89,0,0,0,0-22.72,17.09,17.09,0,0,0-1.95-1.64l3.29-4.45a21.5,21.5,0,0,1,2.62,32.7Z"
              transform="translate(0)"/>
        <path class="cls-2"
              d="M416.43,360.44a22,22,0,0,1-9.92-2.37,21.41,21.41,0,0,1-10.9-12.55l5.32-1.7a16.06,16.06,0,0,0,8.12,9.34,16.42,16.42,0,0,0,12.45,1,16.11,16.11,0,0,0,2.37-1l2.54,4.91a22.66,22.66,0,0,1-3.17,1.29A22.22,22.22,0,0,1,416.43,360.44Z"
              transform="translate(0)"/>
        <polygon class="cls-2" points="322.73 391.01 342.87 397.45 341.14 402.69 321 396.25 322.73 391.01"/>
        <polygon class="cls-2" points="344.28 364.72 356.73 381.58 352.2 384.82 339.75 367.96 344.28 364.72"/>
        <path class="cls-2"
              d="M321,396.23A57,57,0,0,1,281.57,349a46.31,46.31,0,0,0-41-40.36l-10.27-1.17,9.49-4.07c.78-.34,1.59-.65,2.39-.94,20-7,42,3.23,49.15,22.86a31.65,31.65,0,0,0,23.11,20.1,50.7,50.7,0,0,1,29.85,19.31L339.71,368a45,45,0,0,0-26.55-17.17A37.2,37.2,0,0,1,286,327.17a32.9,32.9,0,0,0-33.26-21.34,51.54,51.54,0,0,1,34.39,42.53A51.52,51.52,0,0,0,322.69,391Z"
              transform="translate(0)"/>
        <path class="cls-2"
              d="M355.6,427.74l-5-2.5a15.65,15.65,0,0,0,1-12.25,16.06,16.06,0,0,0-8.11-9.35,16.93,16.93,0,0,0-2.36-1l1.74-5.24a23.94,23.94,0,0,1,3.17,1.3,21.5,21.5,0,0,1,10.9,12.55A21.2,21.2,0,0,1,355.6,427.74Z"
              transform="translate(0)"/>
        <path class="cls-2"
              d="M369.94,393.71a24,24,0,0,1-3.48-.26,21.81,21.81,0,0,1-14.3-8.62l4.52-3.24a16.5,16.5,0,0,0,22.79,3.56,17.09,17.09,0,0,0,1.95-1.64l4,3.89a21.87,21.87,0,0,1-15.44,6.31Z"
              transform="translate(0)"/>
        <rect class="cls-2" x="297.1" y="450.25" width="21.18" height="5.5"/>
        <polygon class="cls-2" points="309.29 418.69 326.43 430.94 323.14 435.4 306 423.15 309.29 418.69"/>
        <path class="cls-2"
              d="M297.1,455.75a57.79,57.79,0,0,1-52.29-32.95,46.89,46.89,0,0,0-51.72-25.91l-10.14,2,7.73-6.75c.65-.56,1.31-1.1,2-1.62a38.85,38.85,0,0,1,53.92,6.8,32.07,32.07,0,0,0,28.3,12.09,51.27,51.27,0,0,1,34.46,9.29l-3.29,4.45a45.56,45.56,0,0,0-30.65-8.26,37.69,37.69,0,0,1-33.24-14.2,32.69,32.69,0,0,0-21.81-12.28,33.15,33.15,0,0,0-16.55,2.1,52.22,52.22,0,0,1,46.09,30,52.19,52.19,0,0,0,47.21,29.75v5.49Z"
              transform="translate(0)"/>
        <path class="cls-2"
              d="M339.92,475.18l-5.52-.86A16.12,16.12,0,0,0,320.82,456a16.85,16.85,0,0,0-2.55-.2v-5.5a21.92,21.92,0,0,1,3.43.26A21.62,21.62,0,0,1,339.92,475.18Z"
              transform="translate(0)"/>
        <path class="cls-2"
              d="M336,439.52a21.93,21.93,0,0,1-12.84-4.13l3.29-4.44a16.49,16.49,0,0,0,12.15,2.87,16.26,16.26,0,0,0,10.65-6.42,16.43,16.43,0,0,0,1.34-2.15l5,2.5a22.13,22.13,0,0,1-1.8,2.89,21.84,21.84,0,0,1-14.3,8.62A22.74,22.74,0,0,1,336,439.52Z"
              transform="translate(0)"/>
        <polygon class="cls-2" points="311.5 507.93 313.23 513.17 293.08 519.6 291.35 514.36 311.5 507.93"/>
        <polygon class="cls-2" points="293.12 480.67 313.26 487.11 311.53 492.35 291.39 485.9 293.12 480.67"/>
        <path class="cls-2"
              d="M275.38,522.37A58.23,58.23,0,0,1,233,504.18a47.23,47.23,0,0,0-57.33-8.92l-9,5,5.22-8.77c.44-.73.91-1.45,1.39-2.14a38.18,38.18,0,0,1,24.61-15.84,38.69,38.69,0,0,1,28.8,5.92,32.29,32.29,0,0,0,30.71,2.9,51.18,51.18,0,0,1,35.68-1.64l-1.72,5.24a45.63,45.63,0,0,0-31.75,1.46,37.91,37.91,0,0,1-36.07-3.4,33.35,33.35,0,0,0-39.7,2,52.82,52.82,0,0,1,53.27,14.51,52.71,52.71,0,0,0,54.25,13.94l1.72,5.24A58.77,58.77,0,0,1,275.38,522.37Z"
              transform="translate(0)"/>
        <path class="cls-2" d="M334.41,525.93a16.41,16.41,0,0,0-21.17-12.76l-1.73-5.24a22.05,22.05,0,0,1,28.43,17.14Z"
              transform="translate(0)"/>
        <path class="cls-2"
              d="M318.26,493.38a22.36,22.36,0,0,1-6.76-1.05l1.72-5.25a16.39,16.39,0,0,0,20.57-10.31,16.08,16.08,0,0,0,.61-2.46l5.52.87a19.84,19.84,0,0,1-.8,3.3A21.92,21.92,0,0,1,318.26,493.38Z"
              transform="translate(0)"/>
        <polygon class="cls-2" points="323.2 564.87 326.5 569.33 309.36 581.58 306.07 577.13 323.2 564.87"/>
        <rect class="cls-2" x="297.1" y="544.5" width="21.18" height="5.5"/>
        <path class="cls-2"
              d="M183,601.61l2.25-10c.19-.81.4-1.63.64-2.44,5.95-20,27.34-31.53,47.68-25.69a32.21,32.21,0,0,0,30.11-6.58,51,51,0,0,1,33.43-12.42V550a45.33,45.33,0,0,0-29.73,11A37.91,37.91,0,0,1,232,568.79a33.14,33.14,0,0,0-37.09,13.92,52.93,52.93,0,0,1,55.19-2.37,52.83,52.83,0,0,0,56-3.24l3.29,4.45a58.5,58.5,0,0,1-62,3.58,47.24,47.24,0,0,0-57.32,9Z"
              transform="translate(0)"/>
        <path class="cls-2"
              d="M350.61,575a16.25,16.25,0,0,0-9.5-8,16.46,16.46,0,0,0-12.45,1,17.19,17.19,0,0,0-2.19,1.32l-3.29-4.44a21.28,21.28,0,0,1,2.94-1.78,22.13,22.13,0,0,1,16.73-1.29,21.68,21.68,0,0,1,12.76,10.73Z"
              transform="translate(0)"/>
        <path class="cls-2"
              d="M318.28,550v-5.5a16.06,16.06,0,0,0,16.13-18.58l5.53-.85a22.3,22.3,0,0,1,.26,3.37A21.76,21.76,0,0,1,318.28,550Z"
              transform="translate(0)"/>
        <polygon class="cls-2" points="352.14 615.43 356.67 618.68 344.19 635.52 339.66 632.27 352.14 615.43"/>
        <polygon class="cls-2" points="341.12 597.58 342.85 602.81 322.71 609.26 320.98 604.03 341.12 597.58"/>
        <path class="cls-2"
              d="M230.37,693l-1-10.16c-.08-.84-.14-1.68-.16-2.52-.63-20.86,16.09-38.31,37.27-38.93A31.88,31.88,0,0,0,293.07,626,50.44,50.44,0,0,1,321,604l1.73,5.24a44.89,44.89,0,0,0-24.81,19.53,37.49,37.49,0,0,1-31.22,18.12,32.76,32.76,0,0,0-30.9,24.53,52.65,52.65,0,0,1,51.74-19,52.53,52.53,0,0,0,52.21-20.11l4.53,3.25a58.17,58.17,0,0,1-57.83,22.25,46.83,46.83,0,0,0-51.69,25.94Z"
              transform="translate(0)"/>
        <path class="cls-2"
              d="M356.68,618.68l-4.51-3.24a21,21,0,0,1,2.22-2.57,22.17,22.17,0,0,1,31,0l-4,3.9a16.5,16.5,0,0,0-23.09,0A15.37,15.37,0,0,0,356.68,618.68Z"
              transform="translate(0)"/>
        <path class="cls-2"
              d="M342.85,602.81l-1.74-5.24a16,16,0,0,0,10.49-20.25,17.32,17.32,0,0,0-1-2.32l5-2.5a20.05,20.05,0,0,1,1.31,3.12A21.55,21.55,0,0,1,342.85,602.81Z"
              transform="translate(0)"/>
        <polygon class="cls-2" points="395.61 654.75 400.93 656.45 394.4 676.26 389.08 674.56 395.61 654.75"/>
        <polygon class="cls-2" points="379.52 641.13 382.81 645.58 365.68 657.84 362.39 653.39 379.52 641.13"/>
        <path class="cls-2"
              d="M304.15,765.51,300,756.17c-.35-.77-.66-1.56-.94-2.35a37.71,37.71,0,0,1,23.23-48.37,31.46,31.46,0,0,0,20.43-22.74,49.7,49.7,0,0,1,19.63-29.36l3.29,4.45a44.19,44.19,0,0,0-17.46,26.11,37,37,0,0,1-24,26.73,32.36,32.36,0,0,0-21.69,32.73,52.11,52.11,0,0,1,43.23-33.84,51.93,51.93,0,0,0,43.35-35l5.33,1.69a57.58,57.58,0,0,1-48,38.76,46.31,46.31,0,0,0-41,40.39Z"
              transform="translate(0)"/>
        <path class="cls-2"
              d="M400.93,656.43l-5.32-1.7a19.71,19.71,0,0,1,1.32-3.13,22.09,22.09,0,0,1,29.47-9.41l-2.54,4.9a16.31,16.31,0,0,0-22.93,9.34Z"
              transform="translate(0)"/>
        <path class="cls-2"
              d="M382.77,645.56l-3.29-4.45a15.91,15.91,0,0,0,3.62-22.44,17.9,17.9,0,0,0-1.66-1.91l3.95-3.9a21.84,21.84,0,0,1,2.24,2.56A21.39,21.39,0,0,1,382.77,645.56Z"
              transform="translate(0)"/>
        <rect class="cls-2" x="449.27" y="678.89" width="5.6" height="20.84"/>
        <polygon class="cls-2" points="429.67 670.83 434.2 674.06 421.77 690.95 417.24 687.73 429.67 670.83"/>
        <path class="cls-2"
              d="M397.1,812.1l-6.89-7.65c-.57-.65-1.12-1.29-1.63-2a37.09,37.09,0,0,1-7.71-27.93,37.51,37.51,0,0,1,14.61-25.12,31,31,0,0,0,12.29-27.83,49.09,49.09,0,0,1,9.45-33.9l4.53,3.23a43.65,43.65,0,0,0-8.4,30.15,36.54,36.54,0,0,1-14.44,32.72,32,32,0,0,0-12.49,21.46,31.64,31.64,0,0,0,2.14,16.29,51.34,51.34,0,0,1,30.49-45.35,51.27,51.27,0,0,0,30.24-46.46h5.59a56.77,56.77,0,0,1-33.49,51.46,45.73,45.73,0,0,0-26.33,50.88Z"
              transform="translate(0)"/>
        <path class="cls-2"
              d="M454.87,678.89h-5.6a21.39,21.39,0,0,1,.27-3.38,21.9,21.9,0,0,1,25.09-17.92l-.88,5.43a16.3,16.3,0,0,0-18.68,13.35A18,18,0,0,0,454.87,678.89Z"
              transform="translate(0)"/>
        <path class="cls-2"
              d="M434.19,674.07l-4.52-3.23a15.91,15.91,0,0,0-3.6-22.44,15.65,15.65,0,0,0-2.19-1.31l2.53-4.9a22.52,22.52,0,0,1,2.95,1.76,21.32,21.32,0,0,1,4.83,30.12Z"
              transform="translate(0)"/>
        <polygon class="cls-2" points="513.19 683.83 519.74 703.66 514.42 705.36 507.87 685.53 513.19 683.83"/>
        <polygon class="cls-2" points="486.73 683.86 492.05 685.55 485.51 705.38 480.19 703.68 486.73 683.86"/>
        <path class="cls-2"
              d="M500.11,828.09l-8.93-5.18c-.74-.43-1.46-.88-2.17-1.35A37.48,37.48,0,0,1,478.92,769a30.92,30.92,0,0,0,2.94-30.21,49,49,0,0,1-1.67-35.11l5.33,1.69A43.64,43.64,0,0,0,487,736.62a36.28,36.28,0,0,1-3.46,35.5,32,32,0,0,0,2,39,50.88,50.88,0,0,1,14.75-52.38,50.78,50.78,0,0,0,14.18-53.38l5.33-1.69a56.21,56.21,0,0,1-15.69,59.11,45.37,45.37,0,0,0-9.05,56.4Z"
              transform="translate(0)"/>
        <path class="cls-2"
              d="M507.91,685.56a18.9,18.9,0,0,1-.8-3.3,21.13,21.13,0,0,1,3.92-16,21.76,21.76,0,0,1,14.3-8.62l.88,5.43a16.33,16.33,0,0,0-10.66,6.43,15.8,15.8,0,0,0-2.92,11.94,15.36,15.36,0,0,0,.61,2.47Z"
              transform="translate(0)"/>
        <path class="cls-2"
              d="M492,685.56l-5.32-1.7a15.7,15.7,0,0,0-1-12.25,16.21,16.21,0,0,0-9.5-8,17.51,17.51,0,0,0-2.48-.58l.87-5.44a22.91,22.91,0,0,1,3.35.78,21.73,21.73,0,0,1,12.77,10.73A21.13,21.13,0,0,1,492,685.56Z"
              transform="translate(0)"/>
        <polygon class="cls-2" points="570.26 670.85 582.71 687.71 578.18 690.95 565.73 674.08 570.26 670.85"/>
        <rect class="cls-2" x="545.09" y="678.89" width="5.6" height="20.84"/>
        <path class="cls-2"
              d="M603.17,812.06,593,809.8c-.83-.2-1.66-.4-2.48-.64A38.13,38.13,0,0,1,567.57,791a37,37,0,0,1-3.18-28.77,30.94,30.94,0,0,0-6.69-29.63,49.24,49.24,0,0,1-12.61-32.88h5.59A43.78,43.78,0,0,0,561.89,729a36.34,36.34,0,0,1,7.87,34.81,31.65,31.65,0,0,0,2.71,24.58,32.46,32.46,0,0,0,11.45,11.93A50.73,50.73,0,0,1,581.49,746a50.6,50.6,0,0,0-3.29-55.07l4.52-3.23a56,56,0,0,1,3.65,61,45.41,45.41,0,0,0,9.09,56.41Z"
              transform="translate(0)"/>
        <path class="cls-2"
              d="M565.76,674.07a21.69,21.69,0,0,1-1.79-2.88,21.12,21.12,0,0,1-1.32-16.46,21.56,21.56,0,0,1,10.9-12.55l2.54,4.9a16.06,16.06,0,0,0-8.11,9.35,15.61,15.61,0,0,0,1,12.25,14.5,14.5,0,0,0,1.33,2.14Z"
              transform="translate(0)"/>
        <path class="cls-2"
              d="M550.68,678.89h-5.59a16.21,16.21,0,0,0-16.33-16.06,17,17,0,0,0-2.56.2l-.89-5.43a20.93,20.93,0,0,1,3.45-.26A21.76,21.76,0,0,1,550.68,678.89Z"
              transform="translate(0)"/>
        <polygon class="cls-2" points="620.46 641.09 637.61 653.35 634.32 657.8 617.17 645.55 620.46 641.09"/>
        <polygon class="cls-2" points="604.31 654.73 610.85 674.54 605.53 676.24 599 656.43 604.31 654.73"/>
        <path class="cls-2"
              d="M682,766.53c-20.66,0-37.78-16.24-38.4-36.69A31.23,31.23,0,0,0,627.9,703.7a50,50,0,0,1-22.33-27.45l5.34-1.69A44.39,44.39,0,0,0,630.76,699a36.76,36.76,0,0,1,18.42,30.71,31.84,31.84,0,0,0,10.29,22.56,32.81,32.81,0,0,0,14.66,7.87,51,51,0,0,1-19.37-50.93,50.85,50.85,0,0,0-20.42-51.36l3.29-4.45a56.32,56.32,0,0,1,22.61,56.89,45.74,45.74,0,0,0,26.38,50.87L696,765.4l-10.33,1c-.85.07-1.7.13-2.56.16Z"
              transform="translate(0)"/>
        <path class="cls-2"
              d="M617.17,645.56a21.73,21.73,0,0,1-2.59-2.19,21.31,21.31,0,0,1,0-30.51l4,3.9a15.85,15.85,0,0,0,0,22.71,15.94,15.94,0,0,0,1.94,1.63Z"
              transform="translate(0)"/>
        <path class="cls-2"
              d="M599,656.43a16.42,16.42,0,0,0-20.58-10.32,16.24,16.24,0,0,0-2.36,1l-2.55-4.9a20.36,20.36,0,0,1,3.18-1.29,22.14,22.14,0,0,1,16.73,1.29,21.52,21.52,0,0,1,10.89,12.55Z"
              transform="translate(0)"/>
        <polygon class="cls-2" points="658.89 597.56 679.04 603.99 677.31 609.23 657.17 602.79 658.89 597.56"/>
        <polygon class="cls-2" points="647.79 615.43 660.25 632.3 655.72 635.54 643.26 618.67 647.79 615.43"/>
        <path class="cls-2"
              d="M744.92,700a38.47,38.47,0,0,1-36.22-25.07,31.66,31.66,0,0,0-23.11-20.09,50.63,50.63,0,0,1-29.86-19.31l4.52-3.25a45,45,0,0,0,26.56,17.19A37.2,37.2,0,0,1,714,673.09a33,33,0,0,0,33.25,21.35,51.58,51.58,0,0,1-34.38-42.53,51.5,51.5,0,0,0-35.56-42.65L679,604a57.07,57.07,0,0,1,39.39,47.24,46.3,46.3,0,0,0,41.06,40.35l10.3,1.19-9.52,4.06c-.78.34-1.59.65-2.4.94A38.87,38.87,0,0,1,744.92,700Z"
              transform="translate(0)"/>
        <path class="cls-2"
              d="M657.12,602.81a24.86,24.86,0,0,1-3.18-1.29A21.62,21.62,0,0,1,643,589a21.13,21.13,0,0,1,1.31-16.45l5,2.5a16,16,0,0,0,7.15,21.61,19.74,19.74,0,0,0,2.36,1Z"
              transform="translate(0)"/>
        <path class="cls-2"
              d="M643.27,618.67a16.49,16.49,0,0,0-22.8-3.54,14.55,14.55,0,0,0-1.94,1.63l-4-3.9a21.2,21.2,0,0,1,2.6-2.19,22.17,22.17,0,0,1,30.62,4.76Z"
              transform="translate(0)"/>
        <rect class="cls-2" x="681.67" y="544.5" width="21.19" height="5.5"/>
        <polygon class="cls-2" points="676.81 564.86 693.95 577.11 690.66 581.56 673.52 569.32 676.81 564.86"/>
        <path class="cls-2"
              d="M783.87,617.63a39.28,39.28,0,0,1-5-.31,38.26,38.26,0,0,1-25.53-14.39,32.11,32.11,0,0,0-28.29-12.09,51.1,51.1,0,0,1-34.46-9.29l3.29-4.45a45.49,45.49,0,0,0,30.65,8.26,37.72,37.72,0,0,1,33.24,14.2,32.74,32.74,0,0,0,21.81,12.3,33.47,33.47,0,0,0,16.55-2.11,52.23,52.23,0,0,1-46.1-30A52.17,52.17,0,0,0,702.87,550v-5.5a57.83,57.83,0,0,1,52.29,32.94,46.86,46.86,0,0,0,51.72,25.91l10.22-2-7.81,6.77c-.65.57-1.3,1.1-2,1.61A38.5,38.5,0,0,1,783.87,617.63Z"
              transform="translate(0)"/>
        <path class="cls-2"
              d="M681.67,550a21.88,21.88,0,0,1-3.42-.26A21.64,21.64,0,0,1,660,525.07l5.53.86a16.11,16.11,0,0,0,13.57,18.38,16.75,16.75,0,0,0,2.55.2Z"
              transform="translate(0)"/>
        <path class="cls-2"
              d="M649.36,575l-5-2.5a22.3,22.3,0,0,1,1.81-2.9,22.12,22.12,0,0,1,30.61-4.75l-3.29,4.44a16.5,16.5,0,0,0-22.8,3.55A15.4,15.4,0,0,0,649.36,575Z"
              transform="translate(0)"/>
        <polygon class="cls-2" points="706.86 480.67 708.59 485.9 688.45 492.33 686.72 487.09 706.86 480.67"/>
        <polygon class="cls-2" points="688.43 507.91 708.56 514.35 706.83 519.58 686.7 513.14 688.43 507.91"/>
        <path class="cls-2"
              d="M794.86,527.44a38.55,38.55,0,0,1-21.58-6.59,32.31,32.31,0,0,0-30.72-2.91,51.2,51.2,0,0,1-35.69,1.65l1.73-5.25a45.57,45.57,0,0,0,31.75-1.46,37.9,37.9,0,0,1,36.08,3.4,33.3,33.3,0,0,0,39.66-2,52.79,52.79,0,0,1-53.24-14.52,52.71,52.71,0,0,0-54.25-13.94l-1.73-5.24A58.36,58.36,0,0,1,767,496.06a47.23,47.23,0,0,0,57.34,8.9l9.05-5-5.28,8.8c-.42.72-.89,1.45-1.37,2.13a38.2,38.2,0,0,1-24.61,15.84A36.27,36.27,0,0,1,794.86,527.44Z"
              transform="translate(0)"/>
        <path class="cls-2"
              d="M681.63,493.38a22,22,0,0,1-12.84-4.13A21.43,21.43,0,0,1,660,475.18l5.53-.86a16,16,0,0,0,6.52,10.49,16.45,16.45,0,0,0,12.16,2.87,18.31,18.31,0,0,0,2.49-.58l1.72,5.24a21.92,21.92,0,0,1-3.34.78A24.19,24.19,0,0,1,681.63,493.38Z"
              transform="translate(0)"/>
        <path class="cls-2"
              d="M665.56,525.93l-5.53-.85a20.65,20.65,0,0,1,.81-3.3,22,22,0,0,1,27.61-13.85l-1.72,5.24a16.41,16.41,0,0,0-20.58,10.31A14.82,14.82,0,0,0,665.56,525.93Z"
              transform="translate(0)"/>
        <polygon class="cls-2" points="690.67 418.71 693.96 423.16 676.82 435.42 673.53 430.96 690.67 418.71"/>
        <rect class="cls-2" x="681.67" y="450.25" width="21.19" height="5.5"/>
        <path class="cls-2"
              d="M702.87,455.75v-5.5a45.33,45.33,0,0,0,29.72-11.05A37.9,37.9,0,0,1,768,431.46a33.09,33.09,0,0,0,25-2.66,32.58,32.58,0,0,0,12.13-11.27,53,53,0,0,1-55.22,2.39,52.83,52.83,0,0,0-56,3.23l-3.29-4.45a58.6,58.6,0,0,1,62-3.59,47.21,47.21,0,0,0,57.31-8.95l7.09-7.55-2.3,10c-.19.83-.39,1.64-.63,2.46a37.76,37.76,0,0,1-18.44,22.54,38.76,38.76,0,0,1-29.24,3.13,32.23,32.23,0,0,0-30.11,6.58A51,51,0,0,1,702.87,455.75Z"
              transform="translate(0)"/>
        <path class="cls-2"
              d="M663.91,439.53a22.33,22.33,0,0,1-6.79-1.06,21.79,21.79,0,0,1-12.77-10.73l5-2.5a16.26,16.26,0,0,0,9.51,8,16.48,16.48,0,0,0,12.46-1,18.59,18.59,0,0,0,2.18-1.32l3.28,4.46a21.66,21.66,0,0,1-2.93,1.76A22,22,0,0,1,663.91,439.53Z"
              transform="translate(0)"/>
        <path class="cls-2"
              d="M660,475.18a21.11,21.11,0,0,1-.27-3.38,21.77,21.77,0,0,1,21.92-21.56v5.5a16,16,0,0,0-16.11,18.57Z"
              transform="translate(0)"/>
        <polygon class="cls-2" points="655.69 364.75 660.22 367.99 647.75 384.85 643.23 381.61 655.69 364.75"/>
        <polygon class="cls-2" points="677.28 391.01 679 396.25 658.85 402.68 657.13 397.45 677.28 391.01"/>
        <path class="cls-2"
              d="M679,396.23,677.26,391a44.81,44.81,0,0,0,24.82-19.54,37.48,37.48,0,0,1,31.21-18.11,32.82,32.82,0,0,0,22.93-10.14,31.8,31.8,0,0,0,8-14.41,52.67,52.67,0,0,1-51.75,19.06,52.54,52.54,0,0,0-52.22,20.09l-4.52-3.24a58.17,58.17,0,0,1,57.83-22.25,46.88,46.88,0,0,0,51.7-25.94l4.33-9.27,1,10.15c.09.85.15,1.69.17,2.52A37.25,37.25,0,0,1,760.31,347a38.42,38.42,0,0,1-26.83,11.86,31.92,31.92,0,0,0-26.57,15.42A50.41,50.41,0,0,1,679,396.23Z"
              transform="translate(0)"/>
        <path class="cls-2"
              d="M630.06,393.7a21.88,21.88,0,0,1-15.49-6.32l4-3.9a16.48,16.48,0,0,0,23.07,0,14.3,14.3,0,0,0,1.66-1.91l4.53,3.22a20.31,20.31,0,0,1-2.24,2.58A21.79,21.79,0,0,1,630.06,393.7Z"
              transform="translate(0)"/>
        <path class="cls-2"
              d="M644.35,427.75a21.54,21.54,0,0,1-1.31-3.13,21.15,21.15,0,0,1,1.31-16.46,21.8,21.8,0,0,1,12.77-10.73l1.72,5.24a16.26,16.26,0,0,0-9.51,8,15.93,15.93,0,0,0,0,14.57Z"
              transform="translate(0)"/>
        <polygon class="cls-2" points="605.55 324.02 610.86 325.72 604.29 345.54 598.98 343.83 605.55 324.02"/>
        <polygon class="cls-2" points="634.28 342.42 637.57 346.87 620.45 359.15 617.15 354.71 634.28 342.42"/>
        <path class="cls-2"
              d="M637.61,346.9l-3.29-4.46a44.17,44.17,0,0,0,17.45-26.13,37,37,0,0,1,24-26.72A32.38,32.38,0,0,0,694.41,273a31.51,31.51,0,0,0,3.07-16.13,52.09,52.09,0,0,1-43.23,33.86,51.91,51.91,0,0,0-43.34,35L605.57,324a57.54,57.54,0,0,1,48-38.75,46.33,46.33,0,0,0,41-40.39l1.2-10.14,4.14,9.37c.33.77.66,1.56.94,2.36a36.94,36.94,0,0,1-1.44,28.9,38,38,0,0,1-21.78,19.44,31.51,31.51,0,0,0-20.44,22.74A49.6,49.6,0,0,1,637.61,346.9Z"
              transform="translate(0)"/>
        <path class="cls-2"
              d="M583.47,360.42a22,22,0,0,1-9.93-2.35l2.54-4.9a16.49,16.49,0,0,0,22-7,18.47,18.47,0,0,0,1-2.33l5.32,1.71a21,21,0,0,1-1.31,3.12A22,22,0,0,1,583.47,360.42Z"
              transform="translate(0)"/>
        <path class="cls-2"
              d="M614.57,387.39a20.32,20.32,0,0,1-2.24-2.57,21.37,21.37,0,0,1,4.84-30.13l3.3,4.45a15.92,15.92,0,0,0-3.61,22.44,18,18,0,0,0,1.66,1.92Z"
              transform="translate(0)"/>
        <rect class="cls-2" x="545.09" y="300.52" width="5.6" height="20.84"/>
        <polygon class="cls-2" points="578.18 309.34 582.71 312.58 570.25 329.44 565.73 326.2 578.18 309.34"/>
        <path class="cls-2"
              d="M582.74,312.55l-4.52-3.24a43.78,43.78,0,0,0,8.4-30.15,36.53,36.53,0,0,1,14.44-32.71,32.08,32.08,0,0,0,10.35-37.72,51.35,51.35,0,0,1-30.49,45.32,51.26,51.26,0,0,0-30.23,46.47H545.1a56.76,56.76,0,0,1,33.48-51.46,45.75,45.75,0,0,0,26.33-50.89l-2-10,6.87,7.64c.57.63,1.12,1.29,1.64,1.95a37.47,37.47,0,0,1-6.91,53.05,31.11,31.11,0,0,0-12.29,27.83A49.09,49.09,0,0,1,582.74,312.55Z"
              transform="translate(0)"/>
        <path class="cls-2"
              d="M528.76,342.92a22.51,22.51,0,0,1-3.44-.26l.88-5.44a16.29,16.29,0,0,0,18.67-13.35,15.22,15.22,0,0,0,.22-2.52h5.59a22.75,22.75,0,0,1-.27,3.38A21.84,21.84,0,0,1,528.76,342.92Z"
              transform="translate(0)"/>
        <path class="cls-2"
              d="M573.54,358.07a20.74,20.74,0,0,1-2.93-1.77,21.35,21.35,0,0,1-4.85-30.12l4.53,3.24a15.75,15.75,0,0,0-2.93,11.94,16.31,16.31,0,0,0,8.71,11.8Z"
              transform="translate(0)"/>
    </g>
</svg>