<svg xmlns="http://www.w3.org/2000/svg" xmlns:xlink="http://www.w3.org/1999/xlink" viewBox="0 0 65 66" fill="#fff" fill-rule="evenodd" stroke="#000" stroke-linecap="round" stroke-linejoin="round" width="300" height="300"><defs><style type="text/css"></style></defs><style>.B{fill-rule:nonzero}.C{fill:#435363}.D{fill:#f38b00}</style><use xlink:href="#A" x=".5" y=".5"></use><symbol id="A" overflow="visible"><g stroke="none"><g class="B C"><path d="M32 46.4a14.43 14.43 0 0 1-14.412-14.4c0-7.935 6.467-14.424 14.412-14.424 6.56 0 12.106 4.406 13.844 10.413h5.576C49.565 18.977 41.564 12.172 32 12.172c-10.932 0-19.826 8.894-19.826 19.827S21.07 51.825 32 51.825c9.563 0 17.564-6.803 19.42-15.826h-5.585c-1.738 6.006-7.284 10.4-13.844 10.4"></path><path d="M22.286 41.714a13.7 13.7 0 0 0 9.716 4.03V40a7.98 7.98 0 0 1-5.657-2.344z"></path></g><path d="M18.256 32c0 1.967.42 3.838 1.166 5.532l5.256-2.312a7.96 7.96 0 0 1-.677-3.22 8 8 0 0 1 8-8v-5.746C24.42 18.253 18.256 24.42 18.256 32" class="B D"></path><path d="M36.984 19.18L34.9 24.537a8.02 8.02 0 0 1 4.027 3.452h6.224c-1.228-4.025-4.266-7.277-8.166-8.81" class="B C"></path><path d="M34.902 39.45l2.083 5.357a13.81 13.81 0 0 0 8.167-8.81h-6.224c-.906 1.565-2.325 2.8-4.027 3.453" class="B D"></path><path d="M6.57 39.688l-.258-.908-.015-.056-.208-.85-.038-.175-.153-.738-.058-.33-.1-.593-.07-.5c-.16-1.17-.24-2.35-.24-3.53H0c0 1.288.078 2.575.233 3.853l.01.082.143 1.03.047.284.15.84.1.443.144.665.143.58.132.517.274.965h.002c.375 1.24.82 2.45 1.335 3.62L7.688 42.7a24.65 24.65 0 0 1-1.1-3.004z" class="B C"></path><path d="M32 58.572c-7.326 0-13.967-2.983-18.778-7.795l-3.845 3.845C15.17 60.414 23.166 64 32 64c16.318 0 29.78-12.215 31.75-28h-5.478C56.336 48.76 45.293 58.572 32 58.572m0-53.145a26.42 26.42 0 0 1 15.885 5.286l3.252-4.36A31.85 31.85 0 0 0 32.001 0C18.423 0 6.82 8.458 2.175 20.393l5.064 1.97C11.104 12.46 20.736 5.427 32 5.427" class="B D"></path><path d="M58.273 28h5.478a31.79 31.79 0 0 0-4.602-12.944l-4.613 2.878A26.4 26.4 0 0 1 58.273 28" class="B C"></path><path d="M52.1 28h5.497c-1.434-9.217-7.747-16.838-16.205-20.14l-1.963 5.048A20.54 20.54 0 0 1 52.1 28" class="B D"></path><path d="M32 11.506V6.093c-10.973 0-20.372 6.857-24.142 16.512l5.044 1.963C15.886 16.93 23.322 11.506 32 11.506" class="B C"></path><path d="M11.51 32H6.096c0 10.886 6.75 20.22 16.286 24.047l2-5.024C16.85 47.994 11.51 40.6 11.51 32" class="B D"></path><path d="M32 52.48v5.414c12.925 0 23.668-9.515 25.597-21.907H52.1C50.236 45.38 41.933 52.48 32 52.48" class="B C"></path></g></symbol></svg>